<svg width="62" height="62" viewBox="0 0 62 62" fill="none" xmlns="http://www.w3.org/2000/svg">
<rect width="62" height="62" rx="15" fill="#F7FBFF"/>
<rect width="62" height="62" rx="15" fill="url(#paint0_linear_2882_446)"/>
<path d="M14.4209 19.7695H7.96046C7.96046 19.7695 7.89334 19.9439 8.20378 20.1846C8.51422 20.4254 8.99246 21.2722 9.3868 22.7914C9.78114 24.3107 14.7481 42.4587 14.7481 42.4587C14.7481 42.4587 15.218 44.3516 16.3758 44.3516H22.895C22.895 44.3516 23.2223 44.2685 22.895 44.0278C22.5678 43.787 21.9973 42.5251 21.7288 41.6119C21.4603 40.6987 16.0906 21.4465 16.0906 21.4465C16.0906 21.4465 15.6291 19.7695 14.4209 19.7695Z" fill="#003C88"/>
<path d="M47.579 19.7695H54.0395C54.0395 19.7695 54.1066 19.9439 53.7962 20.1846C53.4857 20.4254 53.0075 21.2722 52.6132 22.7914C52.2188 24.3107 47.2518 42.4587 47.2518 42.4587C47.2518 42.4587 46.782 44.3516 45.6241 44.3516H39.1049C39.1049 44.3516 38.7777 44.2685 39.1049 44.0278C39.4321 43.787 40.0027 42.5251 40.2711 41.6119C40.5396 40.6987 45.9178 21.4465 45.9178 21.4465C45.9094 21.4465 46.3708 19.7695 47.579 19.7695Z" fill="#003C88"/>
<path d="M28.9525 27.8978L27.0563 40.9983C27.0563 40.9983 26.6032 42.5424 25.0762 42.5424C23.5492 42.5424 23.2136 40.965 23.2136 40.965L21.502 34.5227C21.502 34.5227 22.3578 26.9514 22.8696 24.4691C23.3814 21.9868 24.8077 21.9287 24.8077 21.9287H30.6053C30.6053 21.9287 30.6053 22.1114 30.4963 22.3023C30.3872 22.4932 29.8502 22.6178 28.9609 27.8978H28.9525Z" fill="#006FBB"/>
<path d="M32.971 27.8968L34.8672 40.9973C34.8672 40.9973 35.3202 42.5414 36.8473 42.5414C38.3743 42.5414 38.7099 40.9641 38.7099 40.9641L40.4215 34.8123C40.4215 34.8123 39.5657 26.9587 39.0539 24.4764C38.5421 21.9941 37.1158 21.936 37.1158 21.936H31.3181C31.3181 21.936 31.3181 22.1187 31.4272 22.3096C31.5363 22.5006 32.0732 22.6251 32.9626 27.9051L32.971 27.8968Z" fill="#006FBB"/>
<defs>
<linearGradient id="paint0_linear_2882_446" x1="31" y1="0" x2="31" y2="62" gradientUnits="userSpaceOnUse">
<stop stop-color="#E8F0FC" stop-opacity="0"/>
<stop offset="1" stop-color="#E8F0FC"/>
</linearGradient>
</defs>
</svg>
